mtllib glaucousgreen.mtl
usemtl glaucousgreen
v 0.1113587 0.0038 -0.09449914
v 0.1113587 0.1438 -0.09449914
v 0.1113587 0.0038 -0.1310677
v 0.1113587 0.1438 -0.1310677
v 0.02307445 0.0038 -0.09449914
v 0.02307445 0.1438 -0.09449914
v 0.02307445 0.0038 -0.1310677
v 0.02307445 0.1438 -0.1310677
v 0.1372166 0.05551573 -0.06864128
v 0.1372166 0.09208427 -0.06864128
v 0.1372166 0.05551573 -0.1569255
v 0.1372166 0.09208427 -0.1569255
v -0.002783414 0.05551573 -0.06864128
v -0.002783414 0.09208427 -0.06864128
v -0.002783414 0.05551573 -0.1569255
v -0.002783414 0.09208427 -0.1569255
v 0.08550086 0.02965786 -0.04278341
v 0.08550086 0.1179421 -0.04278341
v 0.08550086 0.02965786 -0.1827834
v 0.08550086 0.1179421 -0.1827834
v 0.04893231 0.02965786 -0.04278341
v 0.04893231 0.1179421 -0.04278341
v 0.04893231 0.02965786 -0.1827834
v 0.04893231 0.1179421 -0.1827834
v 0.08550086 0.0038 -0.06864128
v 0.08550086 0.1438 -0.06864128
v 0.08550086 0.0038 -0.1569255
v 0.08550086 0.1438 -0.1569255
v 0.04893231 0.0038 -0.06864128
v 0.04893231 0.1438 -0.06864128
v 0.04893231 0.0038 -0.1569255
v 0.04893231 0.1438 -0.1569255
v 0.1372166 0.02965786 -0.09449914
v 0.1372166 0.1179421 -0.09449914
v 0.1372166 0.02965786 -0.1310677
v 0.1372166 0.1179421 -0.1310677
v -0.002783414 0.02965786 -0.09449914
v -0.002783414 0.1179421 -0.09449914
v -0.002783414 0.02965786 -0.1310677
v -0.002783414 0.1179421 -0.1310677
v 0.1113587 0.05551573 -0.04278341
v 0.1113587 0.09208427 -0.04278341
v 0.1113587 0.05551573 -0.1827834
v 0.1113587 0.09208427 -0.1827834
v 0.02307445 0.05551573 -0.04278341
v 0.02307445 0.09208427 -0.04278341
v 0.02307445 0.05551573 -0.1827834
v 0.02307445 0.09208427 -0.1827834
vn 0.4786255 -0.8512542 0.2151373
vn 0.4786255 0.8512542 0.2151373
vn 0.4786255 -0.8512542 -0.2151373
vn 0.3594266 0.9190818 -0.1615586
vn -0.4786255 -0.8512542 0.2151373
vn -0.3594266 0.9190818 0.1615586
vn -0.4786255 -0.8512542 -0.2151373
vn -0.4786255 0.8512542 -0.2151373
vn 0.7940402 -0.3203845 0.5165791
vn 0.8512542 0.2151373 0.4786255
vn 0.8512542 -0.2151373 -0.4786255
vn 0.7940402 0.3203845 -0.5165791
vn -0.8512542 -0.2151373 0.4786255
vn -0.8697849 0.2600702 0.41933
vn -0.8697849 -0.2600702 -0.41933
vn -0.8512542 0.2151373 -0.4786255
vn 0.2151373 -0.4786255 0.8512542
vn 0.3203845 0.5165791 0.7940402
vn 0.3203845 -0.5165791 -0.7940402
vn 0.1615586 0.3594266 -0.9190818
vn -0.3203845 -0.5165791 0.7940402
vn -0.2151373 0.4786255 0.8512542
vn -0.1615586 -0.3594266 -0.9190818
vn -0.3203845 0.5165791 -0.7940402
vn 0.2600702 -0.8697849 0.41933
vn 0.2151373 0.8512542 0.4786255
vn 0.1615586 -0.9190818 -0.3594266
vn 0.2600702 0.8697849 -0.41933
vn -0.1615586 -0.9190818 0.3594266
vn -0.2600702 0.8697849 0.41933
vn -0.2600702 -0.8697849 -0.41933
vn -0.2151373 0.8512542 -0.4786255
vn 0.9190818 -0.3594266 0.1615586
vn 0.8697849 0.41933 0.2600702
vn 0.8697849 -0.41933 -0.2600702
vn 0.9190818 0.3594266 -0.1615586
vn -0.7940402 -0.5165791 0.3203845
vn -0.9190818 0.3594266 0.1615586
vn -0.9190818 -0.3594266 -0.1615586
vn -0.7940402 0.5165791 -0.3203845
vn 0.3594266 -0.1615586 0.9190818
vn 0.3594266 0.1615586 0.9190818
vn 0.4786255 -0.2151373 -0.8512542
vn 0.3594266 0.1615586 -0.9190818
vn -0.3594266 -0.1615586 0.9190818
vn -0.3594266 0.1615586 0.9190818
vn -0.3594266 -0.1615586 -0.9190818
vn -0.4786255 0.2151373 -0.8512542

g 20
f 3/3/3 1/1/1 25/25/25
f 27/27/27 25/25/25 29/29/29
f 31/31/31 29/29/29 5/5/5
f 26/26/26 2/2/2 4/4/4
f 30/30/30 4/4/4 28/28/28
f 6/6/6 28/28/28 32/32/32
f 10/10/10 9/9/9 34/34/34
f 34/34/34 33/33/33 35/35/35
f 36/36/36 35/35/35 11/11/11
f 37/37/37 13/13/13 39/39/39
f 39/39/39 14/14/14 38/38/38
f 15/15/15 38/38/38 16/16/16
f 21/21/21 17/17/17 41/41/41
f 45/45/45 41/41/41 42/42/42
f 46/46/46 42/42/42 18/18/18
f 43/43/43 19/19/19 23/23/23
f 44/44/44 23/23/23 47/47/47
f 20/20/20 47/47/47 48/48/48
f 25/25/25 9/9/9 41/41/41
f 9/9/9 25/25/25 1/1/1
f 34/34/34 18/18/18 10/10/10
f 18/18/18 34/34/34 2/2/2
f 35/35/35 19/19/19 43/43/43
f 19/19/19 35/35/35 3/3/3
f 28/28/28 12/12/12 20/20/20
f 12/12/12 28/28/28 4/4/4
f 37/37/37 21/21/21 13/13/13
f 21/21/21 37/37/37 5/5/5
f 30/30/30 14/14/14 46/46/46
f 14/14/14 30/30/30 6/6/6
f 31/31/31 15/15/15 23/23/23
f 15/15/15 31/31/31 7/7/7
f 40/40/40 24/24/24 48/48/48
f 24/24/24 40/40/40 8/8/8
f 33/33/33 1/1/1 3/3/3
f 4/4/4 2/2/2 34/34/34
f 7/7/7 5/5/5 37/37/37
f 38/38/38 6/6/6 8/8/8
f 41/41/41 9/9/9 42/42/42
f 12/12/12 11/11/11 44/44/44
f 14/14/14 13/13/13 45/45/45
f 47/47/47 15/15/15 16/16/16
f 25/25/25 17/17/17 21/21/21
f 22/22/22 18/18/18 26/26/26
f 23/23/23 19/19/19 27/27/27
f 28/28/28 20/20/20 24/24/24
f 3/3/3 25/25/25 27/27/27
f 27/27/27 29/29/29 31/31/31
f 31/31/31 5/5/5 7/7/7
f 26/26/26 4/4/4 30/30/30
f 30/30/30 28/28/28 6/6/6
f 6/6/6 32/32/32 8/8/8
f 9/9/9 33/33/33 34/34/34
f 34/34/34 35/35/35 36/36/36
f 36/36/36 11/11/11 12/12/12
f 13/13/13 14/14/14 39/39/39
f 39/39/39 38/38/38 15/15/15
f 38/38/38 40/40/40 16/16/16
f 21/21/21 41/41/41 45/45/45
f 45/45/45 42/42/42 46/46/46
f 46/46/46 18/18/18 22/22/22
f 43/43/43 23/23/23 44/44/44
f 44/44/44 47/47/47 20/20/20
f 20/20/20 48/48/48 24/24/24
f 25/25/25 41/41/41 17/17/17
f 9/9/9 1/1/1 33/33/33
f 18/18/18 42/42/42 10/10/10
f 18/18/18 2/2/2 26/26/26
f 35/35/35 43/43/43 11/11/11
f 19/19/19 3/3/3 27/27/27
f 12/12/12 44/44/44 20/20/20
f 12/12/12 4/4/4 36/36/36
f 21/21/21 45/45/45 13/13/13
f 21/21/21 5/5/5 29/29/29
f 30/30/30 46/46/46 22/22/22
f 14/14/14 6/6/6 38/38/38
f 15/15/15 47/47/47 23/23/23
f 15/15/15 7/7/7 39/39/39
f 40/40/40 48/48/48 16/16/16
f 24/24/24 8/8/8 32/32/32
f 33/33/33 3/3/3 35/35/35
f 4/4/4 34/34/34 36/36/36
f 7/7/7 37/37/37 39/39/39
f 38/38/38 8/8/8 40/40/40
f 9/9/9 10/10/10 42/42/42
f 11/11/11 43/43/43 44/44/44
f 14/14/14 45/45/45 46/46/46
f 47/47/47 16/16/16 48/48/48
f 25/25/25 21/21/21 29/29/29
f 22/22/22 26/26/26 30/30/30
f 23/23/23 27/27/27 31/31/31
f 28/28/28 24/24/24 32/32/32
