mtllib violetblue.mtl
usemtl violetblue
v 0.02307445 0.2320843 -0.04278341
v 0.02307445 0.3355157 -0.04278341
v -0.02864128 0.2320843 -0.04278341
v -0.02864128 0.3355157 -0.04278341
v 0.04893231 0.2838 -0.01692555
v 0.04893231 0.2838 -0.06864128
v -0.05449914 0.2838 -0.01692555
v -0.05449914 0.2838 -0.06864128
v -0.002783414 0.2579421 0.008932315
v -0.002783414 0.3096579 0.008932315
v -0.002783414 0.2579421 -0.09449914
v -0.002783414 0.3096579 -0.09449914
v -0.002783414 0.2320843 -0.01692555
v -0.002783414 0.3355157 -0.01692555
v -0.002783414 0.2320843 -0.06864128
v -0.002783414 0.3355157 -0.06864128
v 0.04893231 0.2579421 -0.04278341
v 0.04893231 0.3096579 -0.04278341
v -0.05449914 0.2579421 -0.04278341
v -0.05449914 0.3096579 -0.04278341
v 0.02307445 0.2838 0.008932315
v 0.02307445 0.2838 -0.09449914
v -0.02864128 0.2838 0.008932315
v -0.02864128 0.2838 -0.09449914
vn 0.4723475 -0.8814124 0
vn 0.4723475 0.8814124 0
vn -0.4723475 -0.8814124 0
vn -0.4723475 0.8814124 0
vn 0.8814124 6.849951E-16 0.4723475
vn 0.8814124 6.849951E-16 -0.4723475
vn -0.8814124 -6.849951E-16 0.4723475
vn -0.8814124 -6.849951E-16 -0.4723475
vn 4.447414E-16 -0.5722677 0.8200669
vn -4.447414E-16 0.5722677 0.8200669
vn 4.447414E-16 -0.5722677 -0.8200669
vn -4.447414E-16 0.5722677 -0.8200669
vn 6.849951E-16 -0.8814124 0.4723475
vn -6.849951E-16 0.8814124 0.4723475
vn 6.849951E-16 -0.8814124 -0.4723475
vn -6.849951E-16 0.8814124 -0.4723475
vn 0.8200669 -0.5722677 0
vn 0.8200669 0.5722677 0
vn -0.8200669 -0.5722677 0
vn -0.8200669 0.5722677 0
vn 0.4723475 3.670877E-16 0.8814124
vn 0.4723475 3.670877E-16 -0.8814124
vn -0.4723475 -3.670877E-16 0.8814124
vn -0.4723475 -3.670877E-16 -0.8814124

g 240
f 17/17/17 11/11/11 22/22/22
f 11/11/11 17/17/17 1/1/1
f 18/18/18 10/10/10 21/21/21
f 10/10/10 18/18/18 2/2/2
f 19/19/19 9/9/9 23/23/23
f 9/9/9 19/19/19 3/3/3
f 20/20/20 12/12/12 24/24/24
f 12/12/12 20/20/20 4/4/4
f 17/17/17 9/9/9 13/13/13
f 9/9/9 17/17/17 5/5/5
f 18/18/18 12/12/12 16/16/16
f 12/12/12 18/18/18 6/6/6
f 19/19/19 11/11/11 15/15/15
f 11/11/11 19/19/19 8/8/8
f 20/20/20 10/10/10 14/14/14
f 10/10/10 20/20/20 7/7/7
f 15/15/15 1/1/1 13/13/13
f 14/14/14 2/2/2 16/16/16
f 18/18/18 5/5/5 17/17/17
f 19/19/19 7/7/7 20/20/20
f 23/23/23 9/9/9 21/21/21
f 22/22/22 11/11/11 24/24/24
f 17/17/17 22/22/22 6/6/6
f 11/11/11 1/1/1 15/15/15
f 18/18/18 21/21/21 5/5/5
f 10/10/10 2/2/2 14/14/14
f 19/19/19 23/23/23 7/7/7
f 9/9/9 3/3/3 13/13/13
f 20/20/20 24/24/24 8/8/8
f 12/12/12 4/4/4 16/16/16
f 17/17/17 13/13/13 1/1/1
f 9/9/9 5/5/5 21/21/21
f 18/18/18 16/16/16 2/2/2
f 12/12/12 6/6/6 22/22/22
f 19/19/19 15/15/15 3/3/3
f 11/11/11 8/8/8 24/24/24
f 20/20/20 14/14/14 4/4/4
f 10/10/10 7/7/7 23/23/23
f 15/15/15 13/13/13 3/3/3
f 14/14/14 16/16/16 4/4/4
f 18/18/18 17/17/17 6/6/6
f 19/19/19 20/20/20 8/8/8
f 23/23/23 21/21/21 10/10/10
f 22/22/22 24/24/24 12/12/12
